<?xml version="1.0" encoding="utf-8"?>
<!-- Generator: Adobe Illustrator 26.2.1, SVG Export Plug-In . SVG Version: 6.00 Build 0)  -->
<svg version="1.1" id="レイヤー_1" xmlns="http://www.w3.org/2000/svg" xmlns:xlink="http://www.w3.org/1999/xlink" x="0px"
	 y="0px" viewBox="0 0 16 16" style="enable-background:new 0 0 16 16;" xml:space="preserve">
<path d="M15.53,7.2L13.8,5.74V3.11c0-0.34-0.17-0.5-0.5-0.5h-0.73c-0.16,0-0.28,0.05-0.37,0.14c-0.09,0.09-0.14,0.21-0.14,0.37v1.16
	L8.82,1.56C8.57,1.35,8.3,1.24,8,1.24c-0.29,0-0.56,0.11-0.81,0.32L0.47,7.2C0.32,7.32,0.25,7.48,0.25,7.67
	c0,0.15,0.06,0.29,0.17,0.41c0.11,0.12,0.27,0.18,0.47,0.18c0.1,0,0.2-0.02,0.28-0.07c0.08-0.05,0.16-0.1,0.24-0.16l0.75-0.63v5.9
	c0,0.47,0.13,0.83,0.4,1.08c0.27,0.26,0.64,0.39,1.11,0.39h8.63c0.47,0,0.84-0.13,1.1-0.39c0.27-0.26,0.4-0.62,0.4-1.08V7.33
	l0.81,0.68c0.08,0.06,0.16,0.11,0.24,0.16c0.09,0.05,0.18,0.07,0.28,0.07c0.17,0,0.31-0.05,0.43-0.15s0.18-0.24,0.18-0.41
	C15.75,7.49,15.68,7.32,15.53,7.2z"/>
</svg>
